<svg width="649" height="700" viewBox="0 0 649 700" fill="none" xmlns="http://www.w3.org/2000/svg">
<path fill-rule="evenodd" clip-rule="evenodd" d="M318.856 0.00349045C385.455 0.545216 430.833 65.2443 483.07 106.559C530.057 143.72 581.041 176.602 609.081 229.54C638.122 284.369 657.674 348.391 643.107 408.702C628.949 467.318 570.483 500.362 532.379 547.1C492.797 595.65 472.715 664.948 414.778 688.762C355.702 713.045 288.544 691.946 227.764 672.31C168.248 653.084 110.863 625.064 70.2826 577.471C29.8805 530.088 8.93957 469.518 2.08064 407.627C-4.63104 347.065 4.78849 285.603 31.8888 231.028C58.4515 177.536 106.394 141.326 152.916 103.873C204.797 62.1058 252.253 -0.538268 318.856 0.00349045Z" fill="#0A278D" fill-opacity="0.87"/>
</svg>
