<svg width="1056" height="308" viewBox="0 0 1056 308" fill="none" xmlns="http://www.w3.org/2000/svg">
<path d="M315.53 93.65L347.38 93C350.067 93 351.453 93.4333 351.54 94.3L350.11 114.71C346.47 114.71 344.65 114.103 344.65 112.89L342.7 99.5L320.34 100.02L320.99 138.5L320.34 177.24L335.03 180.1C335.03 182.7 334.38 184 333.08 184C329.7 184 323.98 183.827 315.92 183.48L298.11 184C296.81 184 296.16 182.7 296.16 180.1L310.85 177.24L310.2 138.5L310.85 100.02L288.49 99.5L286.54 112.89C286.54 114.103 284.72 114.71 281.08 114.71L279.65 94.3C279.737 93.4333 281.123 93 283.81 93L315.53 93.65ZM381.948 119.39C391.394 119.39 399.151 122.12 405.218 127.58C411.284 133.04 414.318 141.1 414.318 151.76C414.318 162.42 411.241 170.653 405.088 176.46C399.021 182.18 391.091 185.04 381.298 185.04C371.504 185.04 363.661 182.223 357.768 176.59C351.961 170.87 349.058 162.767 349.058 152.28C349.058 141.707 352.178 133.603 358.418 127.97C364.658 122.25 372.501 119.39 381.948 119.39ZM359.198 152.02C359.198 160.86 361.278 167.62 365.438 172.3C369.598 176.98 375.014 179.32 381.688 179.32C388.361 179.32 393.778 176.98 397.938 172.3C402.098 167.62 404.178 160.947 404.178 152.28C404.178 143.613 402.098 137.027 397.938 132.52C393.778 127.927 388.361 125.63 381.688 125.63C377.354 125.63 372.934 126.28 368.428 127.58C365.654 129.66 363.401 132.91 361.668 137.33C360.021 141.663 359.198 146.56 359.198 152.02ZM439.182 120.82C447.242 120.04 452.746 119.563 455.692 119.39C465.226 119.39 473.242 121.643 479.742 126.15C483.122 128.49 485.766 131.783 487.672 136.03C489.666 140.277 490.662 145.303 490.662 151.11C490.662 162.117 487.629 170.437 481.562 176.07C475.496 181.703 467.349 184.52 457.122 184.52L439.312 183.22L428.392 184C426.832 184 426.052 182.657 426.052 179.97L434.372 178.15V126.28L426.052 124.46C426.052 121.773 426.832 120.43 428.392 120.43C429.692 120.43 433.289 120.56 439.182 120.82ZM444.382 151.37L443.082 177.5C447.676 178.367 453.006 178.8 459.072 178.8C465.139 178.8 470.209 176.547 474.282 172.04C478.442 167.533 480.522 160.86 480.522 152.02C480.522 134.34 472.332 125.5 455.952 125.5C452.139 125.5 447.849 125.933 443.082 126.8L444.382 151.37ZM514.846 120.82C522.906 120.04 528.41 119.563 531.356 119.39C540.89 119.39 548.906 121.643 555.406 126.15C558.786 128.49 561.43 131.783 563.336 136.03C565.33 140.277 566.326 145.303 566.326 151.11C566.326 162.117 563.293 170.437 557.226 176.07C551.16 181.703 543.013 184.52 532.786 184.52L514.976 183.22L504.056 184C502.496 184 501.716 182.657 501.716 179.97L510.036 178.15V126.28L501.716 124.46C501.716 121.773 502.496 120.43 504.056 120.43C505.356 120.43 508.953 120.56 514.846 120.82ZM520.046 151.37L518.746 177.5C523.34 178.367 528.67 178.8 534.736 178.8C540.803 178.8 545.873 176.547 549.946 172.04C554.106 167.533 556.186 160.86 556.186 152.02C556.186 134.34 547.996 125.5 531.616 125.5C527.803 125.5 523.513 125.933 518.746 126.8L520.046 151.37ZM680.776 99.76L667.126 96.9C667.126 94.3 667.82 93 669.206 93L684.936 93.52L696.376 93C697.676 93 698.326 94.3 698.326 96.9L688.576 99.76L688.186 184H680.906L625.006 108.21L626.046 177.24L639.826 180.1C639.826 182.7 639.133 184 637.746 184L622.016 183.48L609.276 184C607.976 184 607.326 182.7 607.326 180.1L617.986 177.24V99.89L607.326 97.03C607.326 94.3433 607.89 93 609.016 93C610.23 93 616.166 93.1733 626.826 93.52L681.556 167.62L680.776 99.76ZM755.921 184L723.811 183.22L713.021 184C711.461 184 710.681 182.657 710.681 179.97L719.001 178.15V126.28L710.681 124.46C710.681 121.773 711.461 120.43 713.021 120.43C714.321 120.43 717.918 120.56 723.811 120.82L755.271 120.43C757.005 120.43 758.088 120.603 758.521 120.95C758.955 121.21 759.171 121.643 759.171 122.25L756.831 136.03C753.278 136.03 751.501 135.38 751.501 134.08V126.54L727.711 126.8L728.881 148.38H752.931V153.71L728.751 155.14L727.711 177.63H752.671L754.881 170.22C755.141 169.267 755.618 168.66 756.311 168.4C757.091 168.14 758.435 168.01 760.341 168.01L759.561 182.44C759.388 183.48 758.175 184 755.921 184ZM790.556 126.54L791.726 155.14L797.316 155.4C802.169 155.227 805.939 153.623 808.626 150.59C811.313 147.47 812.656 143.96 812.656 140.06C812.656 136.073 811.486 132.693 809.146 129.92C806.893 127.147 803.556 125.717 799.136 125.63L790.556 126.54ZM786.526 120.82L800.826 120.43C807.066 120.43 812.049 122.293 815.776 126.02C819.503 129.747 821.366 134.383 821.366 139.93C821.366 145.39 819.199 150.157 814.866 154.23C810.619 158.217 804.553 160.383 796.666 160.73L791.466 160.99L790.556 178.15L801.606 179.97C801.606 182.657 800.869 184 799.396 184L786.526 183.22L775.736 184C774.176 184 773.396 182.657 773.396 179.97L781.716 178.15V126.28L773.396 124.46C773.396 121.773 774.176 120.43 775.736 120.43C777.036 120.43 780.633 120.56 786.526 120.82ZM862.719 119.39C872.166 119.39 879.923 122.12 885.989 127.58C892.056 133.04 895.089 141.1 895.089 151.76C895.089 162.42 892.013 170.653 885.859 176.46C879.793 182.18 871.863 185.04 862.069 185.04C852.276 185.04 844.433 182.223 838.539 176.59C832.733 170.87 829.829 162.767 829.829 152.28C829.829 141.707 832.949 133.603 839.189 127.97C845.429 122.25 853.273 119.39 862.719 119.39ZM839.969 152.02C839.969 160.86 842.049 167.62 846.209 172.3C850.369 176.98 855.786 179.32 862.459 179.32C869.133 179.32 874.549 176.98 878.709 172.3C882.869 167.62 884.949 160.947 884.949 152.28C884.949 143.613 882.869 137.027 878.709 132.52C874.549 127.927 869.133 125.63 862.459 125.63C858.126 125.63 853.706 126.28 849.199 127.58C846.426 129.66 844.173 132.91 842.439 137.33C840.793 141.663 839.969 146.56 839.969 152.02ZM948.554 184L919.954 183.22L909.164 184C907.604 184 906.824 182.657 906.824 179.97L915.144 178.15V126.28L906.824 124.46C906.824 121.773 907.604 120.43 909.164 120.43L919.954 120.82L930.484 120.43C931.957 120.43 932.694 121.73 932.694 124.33L924.374 126.28V177.63H945.304L947.514 170.22C947.774 169.267 948.25 168.66 948.944 168.4C949.724 168.14 951.067 168.01 952.974 168.01L952.194 182.44C952.02 183.48 950.807 184 948.554 184ZM971.653 178.15L980.363 179.97C980.363 182.657 979.583 184 978.023 184C977.33 184 973.56 183.87 966.713 183.61L957.743 184C956.27 184 955.533 182.7 955.533 180.1L963.073 178.15L985.043 120.43H993.493L1015.72 178.02L1023.26 180.1C1023.26 182.7 1022.48 184 1020.92 184C1019.45 184 1015.98 183.87 1010.52 183.61L999.213 184C997.653 184 996.873 182.657 996.873 179.97L1005.71 178.15L1000.51 163.72L976.333 165.02L971.653 178.15ZM988.423 130.44L978.543 158.26H998.433L988.423 130.44Z" fill="#121212"/>
<path d="M125 21V1.5L244 37.6149V48L125 21Z" fill="#D5D5D5"/>
<path d="M125 48V31.5L244 53.5V61L163 52L142.5 45.5V50L125 48Z" fill="#D5D5D5"/>
<path d="M125 56.5V72.5L142.5 72.8457V58L125 56.5Z" fill="#D5D5D5"/>
<path d="M125 79V82.5L139.5 92H142.5V79H125Z" fill="#D5D5D5"/>
<path d="M244 66L197.5 62.5L236 74.5H244V66Z" fill="#D5D5D5"/>
<path d="M157 70V73L176 73.5L157 70Z" fill="#D5D5D5"/>
<path d="M193 79H157V91.5L193 89.5V79Z" fill="#D5D5D5"/>
<path d="M209 80V89L230.5 88L209 80Z" fill="#D5D5D5"/>
<path d="M125 104.5V121L149 117L132.5 103.5L125 104.5Z" fill="#D5D5D5"/>
<path d="M157 101V115.5L193 109V97L157 101Z" fill="#D5D5D5"/>
<path d="M209 95.5V106.5L244 100V91.5L209 95.5Z" fill="#D5D5D5"/>
<path d="M125 129V143L158.5 134.5L193 125.5V115L157 122.5H156L125 129Z" fill="#D5D5D5"/>
<path d="M209 111.5V122L244 113V104.5L209 111.5Z" fill="#D5D5D5"/>
<path d="M125 151.5V163.5L193 141.5V132.5L125 151.5Z" fill="#D5D5D5"/>
<path d="M209 128V136L243.5 125V118.5L209 128Z" fill="#D5D5D5"/>
<path d="M125 173L133 178.5L193 155.5V146.5L125 170.5V173Z" fill="#D5D5D5"/>
<path d="M209 141V149.5L243.5 136.5V129L209 141Z" fill="#D5D5D5"/>
<path d="M209 154.5V163.5L243.5 148V140.5L209 154.5Z" fill="#D5D5D5"/>
<path d="M209 169.5V178.5L243.5 161V153L209 169.5Z" fill="#D5D5D5"/>
<path d="M209 184.5V194L243.5 174.5V166L209 184.5Z" fill="#D5D5D5"/>
<path d="M243.5 177.5L209 198.5L142.5 238L125 248.5V263L243.5 186V177.5Z" fill="#D5D5D5"/>
<path d="M125 270.5V285.5L243.5 200V191L125 270.5Z" fill="#D5D5D5"/>
<path d="M125 293.5V306L243.5 214V204.5L125 293.5Z" fill="#D5D5D5"/>
<path d="M125 229V242L142.5 231.5V219.5L125 229Z" fill="#D5D5D5"/>
<path d="M125 210V221.5L142.5 212.5V201.5L125 210Z" fill="#D5D5D5"/>
<path d="M125 189L124 202L139 195L129 187.5L125 189Z" fill="#D5D5D5"/>
<path d="M149.5 190.5L139.5 183L193 161.5V171L149.5 190.5Z" fill="#D5D5D5"/>
<path d="M156 195L159.5 197.5L178 192.5L193 189V177L156 195Z" fill="#D5D5D5"/>
<path d="M125 21V1.5L244 37.6149V48L125 21Z" stroke="black"/>
<path d="M125 48V31.5L244 53.5V61L163 52L142.5 45.5V50L125 48Z" stroke="black"/>
<path d="M125 56.5V72.5L142.5 72.8457V58L125 56.5Z" stroke="black"/>
<path d="M125 79V82.5L139.5 92H142.5V79H125Z" stroke="black"/>
<path d="M244 66L197.5 62.5L236 74.5H244V66Z" stroke="black"/>
<path d="M157 70V73L176 73.5L157 70Z" stroke="black"/>
<path d="M193 79H157V91.5L193 89.5V79Z" stroke="black"/>
<path d="M209 80V89L230.5 88L209 80Z" stroke="black"/>
<path d="M125 104.5V121L149 117L132.5 103.5L125 104.5Z" stroke="black"/>
<path d="M157 101V115.5L193 109V97L157 101Z" stroke="black"/>
<path d="M209 95.5V106.5L244 100V91.5L209 95.5Z" stroke="black"/>
<path d="M125 129V143L158.5 134.5L193 125.5V115L157 122.5H156L125 129Z" stroke="black"/>
<path d="M209 111.5V122L244 113V104.5L209 111.5Z" stroke="black"/>
<path d="M125 151.5V163.5L193 141.5V132.5L125 151.5Z" stroke="black"/>
<path d="M209 128V136L243.5 125V118.5L209 128Z" stroke="black"/>
<path d="M125 173L133 178.5L193 155.5V146.5L125 170.5V173Z" stroke="black"/>
<path d="M209 141V149.5L243.5 136.5V129L209 141Z" stroke="black"/>
<path d="M209 154.5V163.5L243.5 148V140.5L209 154.5Z" stroke="black"/>
<path d="M209 169.5V178.5L243.5 161V153L209 169.5Z" stroke="black"/>
<path d="M209 184.5V194L243.5 174.5V166L209 184.5Z" stroke="black"/>
<path d="M243.5 177.5L209 198.5L142.5 238L125 248.5V263L243.5 186V177.5Z" stroke="black"/>
<path d="M125 270.5V285.5L243.5 200V191L125 270.5Z" stroke="black"/>
<path d="M125 293.5V306L243.5 214V204.5L125 293.5Z" stroke="black"/>
<path d="M125 229V242L142.5 231.5V219.5L125 229Z" stroke="black"/>
<path d="M125 210V221.5L142.5 212.5V201.5L125 210Z" stroke="black"/>
<path d="M125 189L124 202L139 195L129 187.5L125 189Z" stroke="black"/>
<path d="M149.5 190.5L139.5 183L193 161.5V171L149.5 190.5Z" stroke="black"/>
<path d="M156 195L159.5 197.5L178 192.5L193 189V177L156 195Z" stroke="black"/>
<path d="M122 1L3.5 37.5V76.5L105 45.5V70L122.264 81.5L122.132 41.25L122 1Z" fill="#0033E8"/>
<path d="M1 217.5L123 306L122.598 183.5L105 173V249L37.5 200V80L1 94V217.5Z" fill="#0033E8"/>
<path d="M88.5 70L122.315 97V171.5L88.5 147.5V197.5L54.5 192.5V76.5L88.5 70Z" fill="#0033E8"/>
<path d="M122.559 171.5L122.315 97M122.315 97L88.5 70L54.5 76.5V192.5L88.5 197.5V147.5L122.315 171.5V97ZM3.5 37.5L122 1L122.132 41.25L122.264 81.5L105 70V45.5L3.5 76.5V37.5ZM123 306L1 217.5V94L37.5 80V200L105 249V173L122.598 183.5L123 306Z" stroke="black"/>
</svg>
