<svg width="245" height="308" viewBox="0 0 245 308" fill="none" xmlns="http://www.w3.org/2000/svg">
<path d="M125 21V1.5L244 37.6149V48L125 21Z" fill="#BABABA"/>
<path d="M125 48V31.5L244 53.5V61L163 52L142.5 45.5V50L125 48Z" fill="#BABABA"/>
<path d="M125 56.5V72.5L142.5 72.8457V58L125 56.5Z" fill="#BABABA"/>
<path d="M125 79V82.5L139.5 92H142.5V79H125Z" fill="#BABABA"/>
<path d="M244 66L197.5 62.5L236 74.5H244V66Z" fill="#BABABA"/>
<path d="M157 70V73L176 73.5L157 70Z" fill="#BABABA"/>
<path d="M193 79H157V91.5L193 89.5V79Z" fill="#BABABA"/>
<path d="M209 80V89L230.5 88L209 80Z" fill="#BABABA"/>
<path d="M125 104.5V121L149 117L132.5 103.5L125 104.5Z" fill="#BABABA"/>
<path d="M157 101V115.5L193 109V97L157 101Z" fill="#BABABA"/>
<path d="M209 95.5V106.5L244 100V91.5L209 95.5Z" fill="#BABABA"/>
<path d="M125 129V143L158.5 134.5L193 125.5V115L157 122.5H156L125 129Z" fill="#BABABA"/>
<path d="M209 111.5V122L244 113V104.5L209 111.5Z" fill="#BABABA"/>
<path d="M125 151.5V163.5L193 141.5V132.5L125 151.5Z" fill="#BABABA"/>
<path d="M209 128V136L243.5 125V118.5L209 128Z" fill="#BABABA"/>
<path d="M125 173L133 178.5L193 155.5V146.5L125 170.5V173Z" fill="#BABABA"/>
<path d="M209 141V149.5L243.5 136.5V129L209 141Z" fill="#BABABA"/>
<path d="M209 154.5V163.5L243.5 148V140.5L209 154.5Z" fill="#BABABA"/>
<path d="M209 169.5V178.5L243.5 161V153L209 169.5Z" fill="#BABABA"/>
<path d="M209 184.5V194L243.5 174.5V166L209 184.5Z" fill="#BABABA"/>
<path d="M243.5 177.5L209 198.5L142.5 238L125 248.5V263L243.5 186V177.5Z" fill="#BABABA"/>
<path d="M125 270.5V285.5L243.5 200V191L125 270.5Z" fill="#BABABA"/>
<path d="M125 293.5V306L243.5 214V204.5L125 293.5Z" fill="#BABABA"/>
<path d="M125 229V242L142.5 231.5V219.5L125 229Z" fill="#BABABA"/>
<path d="M125 210V221.5L142.5 212.5V201.5L125 210Z" fill="#BABABA"/>
<path d="M125 189L124 202L139 195L129 187.5L125 189Z" fill="#BABABA"/>
<path d="M149.5 190.5L139.5 183L193 161.5V171L149.5 190.5Z" fill="#BABABA"/>
<path d="M156 195L159.5 197.5L178 192.5L193 189V177L156 195Z" fill="#BABABA"/>
<path d="M125 21V1.5L244 37.6149V48L125 21Z" stroke="black"/>
<path d="M125 48V31.5L244 53.5V61L163 52L142.5 45.5V50L125 48Z" stroke="black"/>
<path d="M125 56.5V72.5L142.5 72.8457V58L125 56.5Z" stroke="black"/>
<path d="M125 79V82.5L139.5 92H142.5V79H125Z" stroke="black"/>
<path d="M244 66L197.5 62.5L236 74.5H244V66Z" stroke="black"/>
<path d="M157 70V73L176 73.5L157 70Z" stroke="black"/>
<path d="M193 79H157V91.5L193 89.5V79Z" stroke="black"/>
<path d="M209 80V89L230.5 88L209 80Z" stroke="black"/>
<path d="M125 104.5V121L149 117L132.5 103.5L125 104.5Z" stroke="black"/>
<path d="M157 101V115.5L193 109V97L157 101Z" stroke="black"/>
<path d="M209 95.5V106.5L244 100V91.5L209 95.5Z" stroke="black"/>
<path d="M125 129V143L158.5 134.5L193 125.5V115L157 122.5H156L125 129Z" stroke="black"/>
<path d="M209 111.5V122L244 113V104.5L209 111.5Z" stroke="black"/>
<path d="M125 151.5V163.5L193 141.5V132.5L125 151.5Z" stroke="black"/>
<path d="M209 128V136L243.5 125V118.5L209 128Z" stroke="black"/>
<path d="M125 173L133 178.5L193 155.5V146.5L125 170.5V173Z" stroke="black"/>
<path d="M209 141V149.5L243.5 136.5V129L209 141Z" stroke="black"/>
<path d="M209 154.5V163.5L243.5 148V140.5L209 154.5Z" stroke="black"/>
<path d="M209 169.5V178.5L243.5 161V153L209 169.5Z" stroke="black"/>
<path d="M209 184.5V194L243.5 174.5V166L209 184.5Z" stroke="black"/>
<path d="M243.5 177.5L209 198.5L142.5 238L125 248.5V263L243.5 186V177.5Z" stroke="black"/>
<path d="M125 270.5V285.5L243.5 200V191L125 270.5Z" stroke="black"/>
<path d="M125 293.5V306L243.5 214V204.5L125 293.5Z" stroke="black"/>
<path d="M125 229V242L142.5 231.5V219.5L125 229Z" stroke="black"/>
<path d="M125 210V221.5L142.5 212.5V201.5L125 210Z" stroke="black"/>
<path d="M125 189L124 202L139 195L129 187.5L125 189Z" stroke="black"/>
<path d="M149.5 190.5L139.5 183L193 161.5V171L149.5 190.5Z" stroke="black"/>
<path d="M156 195L159.5 197.5L178 192.5L193 189V177L156 195Z" stroke="black"/>
<path d="M122 1L3.5 37.5V76.5L105 45.5V70L122.264 81.5L122.132 41.25L122 1Z" fill="#0A278D"/>
<path d="M1 217.5L123 306L122.598 183.5L105 173V249L37.5 200V80L1 94V217.5Z" fill="#0A278D"/>
<path d="M88.5 70L122.315 97V171.5L88.5 147.5V197.5L54.5 192.5V76.5L88.5 70Z" fill="#0A278D"/>
<path d="M122.559 171.5L122.315 97M122.315 97L88.5 70L54.5 76.5V192.5L88.5 197.5V147.5L122.315 171.5V97ZM3.5 37.5L122 1L122.132 41.25L122.264 81.5L105 70V45.5L3.5 76.5V37.5ZM123 306L1 217.5V94L37.5 80V200L105 249V173L122.598 183.5L123 306Z" stroke="black"/>
</svg>
