<svg width="246" height="308" xmlns="http://www.w3.org/2000/svg" fill="none">

 <g>
  <title>Layer 1</title>
  <path id="svg_2" fill="#D5D5D5" d="m125,21l0,-19.5l119,36.1149l0,10.3851l-119,-27z"/>
  <path id="svg_3" fill="#D5D5D5" d="m125,48l0,-16.5l119,22l0,7.5l-81,-9l-20.5,-6.5l0,4.5l-17.5,-2z"/>
  <path id="svg_4" fill="#D5D5D5" d="m125,56.5l0,16l17.5,0.3457l0,-14.8457l-17.5,-1.5z"/>
  <path id="svg_5" fill="#D5D5D5" d="m125,79l0,3.5l14.5,9.5l3,0l0,-13l-17.5,0z"/>
  <path id="svg_6" fill="#D5D5D5" d="m244,66l-46.5,-3.5l38.5,12l8,0l0,-8.5z"/>
  <path id="svg_7" fill="#D5D5D5" d="m157,70l0,3l19,0.5l-19,-3.5z"/>
  <path id="svg_8" fill="#D5D5D5" d="m193,79l-36,0l0,12.5l36,-2l0,-10.5z"/>
  <path id="svg_9" fill="#D5D5D5" d="m209,80l0,9l21.5,-1l-21.5,-8z"/>
  <path id="svg_10" fill="#D5D5D5" d="m125,104.5l0,16.5l24,-4l-16.5,-13.5l-7.5,1z"/>
  <path id="svg_11" fill="#D5D5D5" d="m157,101l0,14.5l36,-6.5l0,-12l-36,4z"/>
  <path id="svg_12" fill="#D5D5D5" d="m209,95.5l0,11l35,-6.5l0,-8.5l-35,4z"/>
  <path id="svg_13" fill="#D5D5D5" d="m125,129l0,14l33.5,-8.5l34.5,-9l0,-10.5l-36,7.5l-1,0l-31,6.5z"/>
  <path id="svg_14" fill="#D5D5D5" d="m209,111.5l0,10.5l35,-9l0,-8.5l-35,7z"/>
  <path id="svg_15" fill="#D5D5D5" d="m125,151.5l0,12l68,-22l0,-9l-68,19z"/>
  <path id="svg_16" fill="#D5D5D5" d="m209,128l0,8l34.5,-11l0,-6.5l-34.5,9.5z"/>
  <path id="svg_17" fill="#D5D5D5" d="m125,173l8,5.5l60,-23l0,-9l-68,24l0,2.5z"/>
  <path id="svg_18" fill="#D5D5D5" d="m209,141l0,8.5l34.5,-13l0,-7.5l-34.5,12z"/>
  <path id="svg_19" fill="#D5D5D5" d="m209,154.5l0,9l34.5,-15.5l0,-7.5l-34.5,14z"/>
  <path id="svg_20" fill="#D5D5D5" d="m209,169.5l0,9l34.5,-17.5l0,-8l-34.5,16.5z"/>
  <path id="svg_21" fill="#D5D5D5" d="m209,184.5l0,9.5l34.5,-19.5l0,-8.5l-34.5,18.5z"/>
  <path id="svg_22" fill="#D5D5D5" d="m243.5,177.5l-34.5,21l-66.5,39.5l-17.5,10.5l0,14.5l118.5,-77l0,-8.5z"/>
  <path id="svg_23" fill="#D5D5D5" d="m125,270.5l0,15l118.5,-85.5l0,-9l-118.5,79.5z"/>
  <path id="svg_24" fill="#D5D5D5" d="m125,293.5l0,12.5l118.5,-92l0,-9.5l-118.5,89z"/>
  <path id="svg_25" fill="#D5D5D5" d="m125,229l0,13l17.5,-10.5l0,-12l-17.5,9.5z"/>
  <path id="svg_26" fill="#D5D5D5" d="m125,210l0,11.5l17.5,-9l0,-11l-17.5,8.5z"/>
  <path id="svg_27" fill="#D5D5D5" d="m125,189l-1,13l15,-7l-10,-7.5l-4,1.5z"/>
  <path id="svg_28" fill="#D5D5D5" d="m149.5,190.5l-10,-7.5l53.5,-21.5l0,9.5l-43.5,19.5z"/>
  <path id="svg_29" fill="#D5D5D5" d="m156,195l3.5,2.5l18.5,-5l15,-3.5l0,-12l-37,18z"/>
  <path id="svg_30" stroke="black" d="m125,21l0,-19.5l119,36.1149l0,10.3851l-119,-27z"/>
  <path id="svg_31" stroke="black" d="m125,48l0,-16.5l119,22l0,7.5l-81,-9l-20.5,-6.5l0,4.5l-17.5,-2z"/>
  <path id="svg_32" stroke="black" d="m125,56.5l0,16l17.5,0.3457l0,-14.8457l-17.5,-1.5z"/>
  <path id="svg_33" stroke="black" d="m125,79l0,3.5l14.5,9.5l3,0l0,-13l-17.5,0z"/>
  <path id="svg_34" stroke="black" d="m244,66l-46.5,-3.5l38.5,12l8,0l0,-8.5z"/>
  <path id="svg_35" stroke="black" d="m157,70l0,3l19,0.5l-19,-3.5z"/>
  <path id="svg_36" stroke="black" d="m193,79l-36,0l0,12.5l36,-2l0,-10.5z"/>
  <path id="svg_37" stroke="black" d="m209,80l0,9l21.5,-1l-21.5,-8z"/>
  <path id="svg_38" stroke="black" d="m125,104.5l0,16.5l24,-4l-16.5,-13.5l-7.5,1z"/>
  <path id="svg_39" stroke="black" d="m157,101l0,14.5l36,-6.5l0,-12l-36,4z"/>
  <path id="svg_40" stroke="black" d="m209,95.5l0,11l35,-6.5l0,-8.5l-35,4z"/>
  <path id="svg_41" stroke="black" d="m125,129l0,14l33.5,-8.5l34.5,-9l0,-10.5l-36,7.5l-1,0l-31,6.5z"/>
  <path id="svg_42" stroke="black" d="m209,111.5l0,10.5l35,-9l0,-8.5l-35,7z"/>
  <path id="svg_43" stroke="black" d="m125,151.5l0,12l68,-22l0,-9l-68,19z"/>
  <path id="svg_44" stroke="black" d="m209,128l0,8l34.5,-11l0,-6.5l-34.5,9.5z"/>
  <path id="svg_45" stroke="black" d="m125,173l8,5.5l60,-23l0,-9l-68,24l0,2.5z"/>
  <path id="svg_46" stroke="black" d="m209,141l0,8.5l34.5,-13l0,-7.5l-34.5,12z"/>
  <path id="svg_47" stroke="black" d="m209,154.5l0,9l34.5,-15.5l0,-7.5l-34.5,14z"/>
  <path id="svg_48" stroke="black" d="m209,169.5l0,9l34.5,-17.5l0,-8l-34.5,16.5z"/>
  <path id="svg_49" stroke="black" d="m209,184.5l0,9.5l34.5,-19.5l0,-8.5l-34.5,18.5z"/>
  <path id="svg_50" stroke="black" d="m243.5,177.5l-34.5,21l-66.5,39.5l-17.5,10.5l0,14.5l118.5,-77l0,-8.5z"/>
  <path id="svg_51" stroke="black" d="m125,270.5l0,15l118.5,-85.5l0,-9l-118.5,79.5z"/>
  <path id="svg_52" stroke="black" d="m125,293.5l0,12.5l118.5,-92l0,-9.5l-118.5,89z"/>
  <path id="svg_53" stroke="black" d="m125,229l0,13l17.5,-10.5l0,-12l-17.5,9.5z"/>
  <path id="svg_54" stroke="black" d="m125,210l0,11.5l17.5,-9l0,-11l-17.5,8.5z"/>
  <path id="svg_55" stroke="black" d="m125,189l-1,13l15,-7l-10,-7.5l-4,1.5z"/>
  <path id="svg_56" stroke="black" d="m149.5,190.5l-10,-7.5l53.5,-21.5l0,9.5l-43.5,19.5z"/>
  <path id="svg_57" stroke="black" d="m156,195l3.5,2.5l18.5,-5l15,-3.5l0,-12l-37,18z"/>
  <path id="svg_58" fill="#0033E8" d="m122,1l-118.5,36.5l0,39l101.5,-31l0,24.5l17.264,11.5l-0.132,-40.25l-0.132,-40.25z"/>
  <path id="svg_59" fill="#0033E8" d="m1,217.5l122,88.5l-0.402,-122.5l-17.598,-10.5l0,76l-67.5,-49l0,-120l-36.5,14l0,123.5z"/>
  <path id="svg_60" fill="#0033E8" d="m88.5,70l33.815,27l0,74.5l-33.815,-24l0,50l-34,-5l0,-116l34,-6.5z"/>
  <path id="svg_61" stroke="black" d="m122.559,171.5l-0.244,-74.5m0,0l-33.815,-27l-34,6.5l0,116l34,5l0,-50l33.815,24l0,-74.5zm-118.815,-59.5l118.5,-36.5l0.132,40.25l0.132,40.25l-17.264,-11.5l0,-24.5l-101.5,31l0,-39zm119.5,268.5l-122,-88.5l0,-123.5l36.5,-14l0,120l67.5,49l0,-76l17.598,10.5l0.402,122.5z"/>
 </g>
</svg>